<svg width="66" height="41" viewBox="0 0 66 41" fill="none" xmlns="http://www.w3.org/2000/svg">
<path d="M46.7144 9H60.4286L65 22.7143V33.0001H59.1715" stroke="#333333" stroke-width="2" stroke-miterlimit="10" stroke-linecap="round" stroke-linejoin="round"/>
<path d="M47.8572 33.0001L25 33.0001" stroke="#333333" stroke-width="2" stroke-miterlimit="10" stroke-linecap="round" stroke-linejoin="round"/>
<path d="M13 33.0001H5C2.79086 33.0001 1 31.2092 1 29.0001V5C1 2.79086 2.79086 1 5 1H42.7143C44.9234 1 46.7143 2.79086 46.7143 5V23.8572" stroke="#333333" stroke-width="2" stroke-miterlimit="10" stroke-linecap="round" stroke-linejoin="round"/>
<path d="M18.7142 39.8572C22.1857 39.8572 24.9999 37.043 24.9999 33.5715C24.9999 30.1 22.1857 27.2858 18.7142 27.2858C15.2427 27.2858 12.4285 30.1 12.4285 33.5715C12.4285 37.043 15.2427 39.8572 18.7142 39.8572Z" stroke="#333333" stroke-width="2" stroke-miterlimit="10" stroke-linecap="round" stroke-linejoin="round"/>
<path d="M53.5712 39.8571C56.7271 39.8571 59.2855 37.2987 59.2855 34.1428C59.2855 30.9868 56.7271 28.4285 53.5712 28.4285C50.4153 28.4285 47.8569 30.9868 47.8569 34.1428C47.8569 37.2987 50.4153 39.8571 53.5712 39.8571Z" stroke="#333333" stroke-width="2" stroke-miterlimit="10" stroke-linecap="round" stroke-linejoin="round"/>
</svg>
